<svg width="49" height="18" viewBox="0 0 49 18" fill="none" xmlns="http://www.w3.org/2000/svg">
<g clip-path="url(#clip0_1_9080)">
<path d="M26.414 0C21.4716 0 17.4506 4.03749 17.4506 9C17.4506 13.9625 21.4716 18 26.414 18C31.3563 18 35.3774 13.9625 35.3774 9C35.3774 4.03749 31.3573 0 26.414 0ZM26.414 14.1739C23.5731 14.1739 21.2611 11.8534 21.2611 9C21.2611 6.14656 23.5721 3.82609 26.414 3.82609C29.2558 3.82609 31.5668 6.14656 31.5668 9C31.5668 11.8534 29.2558 14.1739 26.414 14.1739Z" fill="#8B8D92"/>
<path d="M12.2443 9.7285L8.80246 3.00926C7.85551 1.23765 5.91219 0.375165 3.96788 0.864468C2.02257 1.35377 0.71582 3.03408 0.71582 5.04389V16.7981C0.71582 16.946 0.835425 17.0661 0.982706 17.0661H4.22784C4.37512 17.0661 4.49473 16.946 4.49473 16.7981V5.09153C4.49473 4.99129 4.49473 4.63796 4.88814 4.53871C5.28056 4.43946 5.46145 4.76996 5.50889 4.85829L11.9082 16.7852C12.0011 16.9589 12.181 17.067 12.3777 17.067H15.7366C15.8838 17.067 16.0034 16.947 16.0034 16.7991V1.2039C16.0034 1.05602 15.8838 0.935929 15.7366 0.935929H12.5122C12.3649 0.935929 12.2453 1.05602 12.2453 1.2039V9.7285H12.2443Z" fill="#8B8D92"/>
<path d="M42.6624 13.2152C41.5553 13.2152 40.6578 12.314 40.6578 11.2024V1.20192C40.6578 1.05404 40.5382 0.933944 40.3909 0.933944H37.0775C36.9303 0.933944 36.8107 1.05404 36.8107 1.20192V11.4148C36.8107 14.5362 39.3303 17.0661 42.439 17.0661H48.0179C48.1652 17.0661 48.2848 16.946 48.2848 16.7981V13.4821C48.2848 13.3343 48.1652 13.2142 48.0179 13.2142H42.6614L42.6624 13.2152Z" fill="#8B8D92"/>
</g>
<defs>
<clipPath id="clip0_1_9080">
<rect width="49" height="18" fill="white"/>
</clipPath>
</defs>
</svg>
