<svg width="98" height="36" viewBox="0 0 98 36" fill="none" xmlns="http://www.w3.org/2000/svg">
<path d="M52.8275 0C42.9428 0 34.9006 8.07499 34.9006 18C34.9006 27.925 42.9428 36 52.8275 36C62.7121 36 70.7543 27.925 70.7543 18C70.7543 8.07499 62.7141 0 52.8275 0ZM52.8275 28.3478C47.1458 28.3478 42.5217 23.7069 42.5217 18C42.5217 12.2931 47.1438 7.65218 52.8275 7.65218C58.5111 7.65218 63.1332 12.2931 63.1332 18C63.1332 23.7069 58.5111 28.3478 52.8275 28.3478Z" fill="#4154FF"/>
<path d="M24.4881 19.457L17.6044 6.01853C15.7105 2.4753 11.8239 0.750331 7.93526 1.72894C4.04466 2.70754 1.43115 6.06815 1.43115 10.0878V33.5962C1.43115 33.8919 1.67036 34.1321 1.96492 34.1321H8.4552C8.74976 34.1321 8.98897 33.8919 8.98897 33.5962V10.1831C8.98897 9.98258 8.98897 9.27592 9.77579 9.07742C10.5606 8.87892 10.9224 9.53992 11.0173 9.71659L23.816 33.5704C24.0018 33.9177 24.3616 34.1341 24.755 34.1341H31.4726C31.7672 34.1341 32.0064 33.8939 32.0064 33.5981V2.40781C32.0064 2.11204 31.7672 1.87186 31.4726 1.87186H25.0239C24.7293 1.87186 24.4901 2.11204 24.4901 2.40781V19.457H24.4881Z" fill="#4154FF"/>
<path d="M85.3243 26.4303C83.1101 26.4303 81.3151 24.6279 81.3151 22.4047V2.40384C81.3151 2.10807 81.0759 1.86789 80.7813 1.86789H74.1546C73.86 1.86789 73.6208 2.10807 73.6208 2.40384V22.8295C73.6208 29.0723 78.66 34.1321 84.8775 34.1321H96.0353C96.3299 34.1321 96.5691 33.8919 96.5691 33.5962V26.9643C96.5691 26.6685 96.3299 26.4283 96.0353 26.4283H85.3223L85.3243 26.4303Z" fill="#4154FF"/>
</svg>
